<svg width="18" height="17" viewBox="0 0 22 21" fill="none" xmlns="http://www.w3.org/2000/svg">
<path d="M11 12.5C13.7614 12.5 16 9.81371 16 6.5C16 3.18629 13.7614 0.5 11 0.5C8.23858 0.5 6 3.18629 6 6.5C6 9.81371 8.23858 12.5 11 12.5Z" fill="#6A6B6C"/>
<path d="M20.8 17.6C19.9 15.8 18.2 14.3 16 13.4C15.4 13.2 14.7 13.2 14.2 13.5C13.2 14.1 12.2 14.4 11 14.4C9.79997 14.4 8.79997 14.1 7.79997 13.5C7.29997 13.3 6.59997 13.2 5.99997 13.5C3.79997 14.4 2.09997 15.9 1.19997 17.7C0.499973 19 1.59997 20.5 3.09997 20.5H18.9C20.4 20.5 21.5 19 20.8 17.6Z" fill="#6A6B6C"/>
</svg>
